<svg aria-hidden="true" style="position: absolute; width: 0; height: 0; overflow: hidden;" version="1.1"
    xmlns="http://www.w3.org/2000/svg" xmlns:xlink="http://www.w3.org/1999/xlink">
    <defs>
        <symbol id="icon-logo" viewBox="0 0 20 32">
            <path
                d="M3.686 31.859c-0.508-0.244-0.726-0.862-0.487-1.38 0-0.001 0.059-0.128 0.168-0.375s0.265-0.61 0.453-1.064c0.376-0.909 0.878-2.185 1.38-3.644 1.005-2.911 1.99-6.58 1.983-9.377 0-0.299-0.010-0.587-0.033-0.862-0.177-2.339-1.494-5.277-2.956-7.763-1.457-2.494-3.034-4.564-3.653-5.346-0.177-0.224-0.271-0.337-0.271-0.337-0.363-0.437-0.309-1.092 0.12-1.462s1.070-0.315 1.433 0.122c0.018 0.023 1.7 2.052 3.457 4.869 1.751 2.828 3.61 6.399 3.896 9.748 0.027 0.338 0.039 0.682 0.039 1.031-0.007 3.255-1.063 7.037-2.097 10.064-1.038 3.020-2.070 5.259-2.080 5.28-0.173 0.376-0.539 0.596-0.92 0.596-0.145 0-0.292-0.032-0.432-0.099z">
            </path>
            <path
                d="M15.217 31.362c-0.009-0.021-1.042-2.259-2.080-5.28-1.035-3.027-2.091-6.809-2.098-10.063 0-0.351 0.013-0.695 0.040-1.032 0.286-3.349 2.145-6.92 3.896-9.748 1.758-2.817 3.439-4.846 3.457-4.869l0.001 0.001c0.362-0.438 1.003-0.492 1.432-0.123s0.482 1.024 0.12 1.462c0 0-0.094 0.113-0.271 0.337s-0.432 0.552-0.74 0.966c-0.616 0.827-1.445 1.994-2.284 3.34-1.686 2.682-3.386 6.127-3.585 8.804-0.022 0.276-0.034 0.564-0.034 0.862-0.005 2.445 0.745 5.566 1.61 8.252 0.862 2.691 1.826 4.967 2.207 5.833 0.108 0.248 0.167 0.375 0.168 0.375 0.239 0.518 0.021 1.136-0.487 1.381-0.14 0.067-0.287 0.099-0.432 0.099-0.382-0-0.748-0.221-0.921-0.596z">
            </path>
            <path
                d="M9.245 9.216l-2.732-4.879c-0.236-0.422-0.155-0.951 0.196-1.279l2.732-2.556c0.389-0.364 0.985-0.364 1.373 0l2.732 2.556c0.351 0.327 0.432 0.857 0.196 1.279l-2.732 4.879c-0.18 0.322-0.519 0.522-0.882 0.522s-0.702-0.201-0.883-0.522zM8.681 4.027l1.446 2.583 1.447-2.584-1.446-1.353-1.446 1.354z">
            </path>
        </symbol>
        <symbol id="icon-burger" viewBox="0 0 32 32">
            <path d="M2 6h28v6h-28zM2 14h28v6h-28zM2 22h28v6h-28z"></path>
        </symbol>
        <symbol id="icon-close" viewBox="0 0 32 32">
            <path
                d="M31.708 25.708c-0-0-0-0-0-0l-9.708-9.708 9.708-9.708c0-0 0-0 0-0 0.105-0.105 0.18-0.227 0.229-0.357 0.133-0.356 0.057-0.771-0.229-1.057l-4.586-4.586c-0.286-0.286-0.702-0.361-1.057-0.229-0.13 0.048-0.252 0.124-0.357 0.228 0 0-0 0-0 0l-9.708 9.708-9.708-9.708c-0-0-0-0-0-0-0.105-0.104-0.227-0.18-0.357-0.228-0.356-0.133-0.771-0.057-1.057 0.229l-4.586 4.586c-0.286 0.286-0.361 0.702-0.229 1.057 0.049 0.13 0.124 0.252 0.229 0.357 0 0 0 0 0 0l9.708 9.708-9.708 9.708c-0 0-0 0-0 0-0.104 0.105-0.18 0.227-0.229 0.357-0.133 0.355-0.057 0.771 0.229 1.057l4.586 4.586c0.286 0.286 0.702 0.361 1.057 0.229 0.13-0.049 0.252-0.124 0.357-0.229 0-0 0-0 0-0l9.708-9.708 9.708 9.708c0 0 0 0 0 0 0.105 0.105 0.227 0.18 0.357 0.229 0.356 0.133 0.771 0.057 1.057-0.229l4.586-4.586c0.286-0.286 0.362-0.702 0.229-1.057-0.049-0.13-0.124-0.252-0.229-0.357z">
            </path>
        </symbol>
        <symbol id="icon-arrow-up2" viewBox="0 0 32 32">
            <path
                d="M27.414 12.586l-10-10c-0.781-0.781-2.047-0.781-2.828 0l-10 10c-0.781 0.781-0.781 2.047 0 2.828s2.047 0.781 2.828 0l6.586-6.586v19.172c0 1.105 0.895 2 2 2s2-0.895 2-2v-19.172l6.586 6.586c0.39 0.39 0.902 0.586 1.414 0.586s1.024-0.195 1.414-0.586c0.781-0.781 0.781-2.047 0-2.828z">
            </path>
        </symbol>
    </defs>
</svg>